<?xml version="1.0" encoding="UTF-8"?><svg xmlns="http://www.w3.org/2000/svg" xmlns:xlink="http://www.w3.org/1999/xlink" width="1190.25" zoomAndPan="magnify" viewBox="0 0 1190.25 1683.749945" height="1683.749945" preserveAspectRatio="xMidYMid meet" version="1.0"><defs><clipPath id="clip-0"><path d="M 168.613281 415.582031 L 1021.933594 415.582031 L 1021.933594 1268.902344 L 168.613281 1268.902344 Z M 168.613281 415.582031 " clip-rule="nonzero"/></clipPath></defs><g clip-path="url(#clip-0)"><path fill="rgb(40.388489%, 22.749329%, 71.759033%)" d="M 1021.933594 1150.382812 C 1021.933594 1215.851562 968.886719 1268.898438 903.417969 1268.898438 L 287.128906 1268.898438 C 221.683594 1268.898438 168.613281 1215.851562 168.613281 1150.382812 L 168.613281 534.097656 C 168.613281 468.628906 221.683594 415.582031 287.128906 415.582031 L 903.417969 415.582031 C 968.886719 415.582031 1021.933594 468.628906 1021.933594 534.097656 Z M 1021.933594 1150.382812 " fill-opacity="1" fill-rule="nonzero"/></g><path fill="rgb(100%, 100%, 100%)" d="M 809.3125 880.164062 C 793.90625 858.832031 771.625 844.136719 742.945312 836.3125 C 742.945312 836.3125 767.121094 827.542969 788.929688 794.832031 C 801.964844 773.976562 808.601562 748.847656 808.601562 719.457031 C 808.601562 668.496094 790.113281 629.382812 753.136719 602.597656 C 716.160156 575.816406 674.441406 557.800781 603.570312 557.800781 L 381.941406 557.800781 L 381.941406 1126.679688 L 629.167969 1126.679688 C 696.25 1126.207031 746.738281 1111.746094 781.105469 1084.015625 C 815.238281 1055.808594 832.304688 1014.089844 832.304688 958.386719 C 832.304688 927.574219 824.722656 901.5 809.3125 880.164062 Z M 524.164062 652.613281 C 524.164062 652.613281 623.003906 652.613281 624.902344 652.613281 C 660.929688 652.613281 690.085938 681.769531 690.085938 717.796875 C 690.085938 753.828125 660.929688 782.980469 624.902344 782.980469 C 623.003906 782.980469 524.164062 782.980469 524.164062 782.980469 Z M 642.679688 1031.867188 L 524.164062 1031.867188 L 524.164062 889.648438 L 642.679688 889.648438 C 682.027344 889.648438 713.789062 921.410156 713.789062 960.757812 C 713.789062 1000.105469 682.027344 1031.867188 642.679688 1031.867188 Z M 642.679688 1031.867188 " fill-opacity="1" fill-rule="nonzero"/></svg>