<?xml version="1.0" encoding="UTF-8"?><svg xmlns="http://www.w3.org/2000/svg" xmlns:xlink="http://www.w3.org/1999/xlink" width="1190.25" zoomAndPan="magnify" viewBox="0 0 1190.25 1683.749945" height="1683.749945" preserveAspectRatio="xMidYMid meet" version="1.0"><defs><clipPath id="clip-0"><path d="M 165.316406 361.855469 L 1024.632812 361.855469 L 1024.632812 1322.402344 L 165.316406 1322.402344 Z M 165.316406 361.855469 " clip-rule="nonzero"/></clipPath></defs><g clip-path="url(#clip-0)"><path fill="rgb(0.779724%, 46.669006%, 74.119568%)" d="M 1024.507812 361.855469 L 165.441406 361.855469 L 241.242188 1221.292969 L 594.972656 1322.402344 L 948.707031 1221.292969 Z M 1024.507812 361.855469 " fill-opacity="1" fill-rule="nonzero"/></g><path fill="rgb(1.179504%, 60.778809%, 89.7995%)" d="M 594.972656 437.6875 L 594.972656 1244.042969 L 877.960938 1163.152344 L 941.125 437.6875 Z M 594.972656 437.6875 " fill-opacity="1" fill-rule="nonzero"/><path fill="rgb(100%, 100%, 100%)" d="M 824.898438 564.074219 L 594.972656 564.074219 L 594.972656 665.183594 L 718.78125 665.183594 L 711.199219 766.296875 L 594.972656 766.296875 L 594.972656 867.40625 L 706.148438 867.40625 L 698.566406 981.15625 L 594.972656 1016.542969 L 594.972656 1122.710938 L 794.582031 1056.988281 L 812.265625 766.296875 Z M 824.898438 564.074219 " fill-opacity="1" fill-rule="nonzero"/><path fill="rgb(93.328857%, 93.328857%, 93.328857%)" d="M 594.972656 564.074219 L 594.972656 665.183594 L 370.101562 665.183594 L 362.519531 564.074219 Z M 478.746094 766.296875 L 483.800781 867.40625 L 594.972656 867.40625 L 594.972656 766.296875 Z M 488.855469 917.960938 L 387.789062 917.960938 L 395.367188 1056.988281 L 594.972656 1122.710938 L 594.972656 1016.542969 L 491.382812 981.15625 Z M 488.855469 917.960938 " fill-opacity="1" fill-rule="nonzero"/></svg>