<?xml version="1.0" encoding="UTF-8"?><svg xmlns="http://www.w3.org/2000/svg" xmlns:xlink="http://www.w3.org/1999/xlink" width="1190.25" zoomAndPan="magnify" viewBox="0 0 1190.25 1683.749945" height="1683.749945" preserveAspectRatio="xMidYMid meet" version="1.0"><path fill="rgb(87.059021%, 29.798889%, 21.179199%)" d="M 1002.667969 804.246094 L 632.765625 434.378906 C 611.488281 413.066406 576.9375 413.066406 555.625 434.371094 L 478.792969 511.183594 L 576.242188 608.625 C 598.878906 600.976562 624.859375 606.109375 642.894531 624.15625 C 661.03125 642.324219 666.128906 668.511719 658.285156 691.226562 L 752.207031 785.152344 C 774.910156 777.308594 801.121094 782.371094 819.289062 800.539062 C 844.640625 825.890625 844.640625 866.996094 819.289062 892.34375 C 793.90625 917.730469 752.835938 917.730469 727.453125 892.34375 C 708.355469 873.25 703.65625 845.25 713.320312 821.753906 L 625.75 734.167969 L 625.71875 964.625 C 631.90625 967.703125 637.730469 971.773438 642.894531 976.902344 C 668.246094 1002.253906 668.246094 1043.359375 642.894531 1068.742188 C 617.542969 1094.09375 576.40625 1094.09375 551.089844 1068.742188 C 525.738281 1043.359375 525.738281 1002.253906 551.089844 976.902344 C 557.34375 970.648438 564.59375 965.914062 572.335938 962.738281 L 572.335938 730.132812 C 564.59375 726.972656 557.378906 722.269531 551.089844 715.964844 C 531.863281 696.777344 527.261719 668.585938 537.089844 644.992188 L 441.050781 548.925781 L 187.414062 802.558594 C 166.097656 823.871094 166.097656 858.421875 187.414062 879.738281 L 557.316406 1249.636719 C 578.628906 1270.917969 613.179688 1270.917969 634.492188 1249.636719 L 1002.671875 881.457031 C 1023.988281 860.144531 1023.988281 825.558594 1002.671875 804.246094 " fill-opacity="1" fill-rule="nonzero"/></svg>