<?xml version="1.0" encoding="UTF-8"?><svg xmlns="http://www.w3.org/2000/svg" xmlns:xlink="http://www.w3.org/1999/xlink" width="1190.25" zoomAndPan="magnify" viewBox="0 0 1190.25 1683.749945" height="1683.749945" preserveAspectRatio="xMidYMid meet" version="1.0"><defs><clipPath id="clip-0"><path d="M 161.921875 369 L 1011.492188 369 L 1011.492188 1334 L 161.921875 1334 Z M 161.921875 369 " clip-rule="nonzero"/></clipPath></defs><g clip-path="url(#clip-0)"><path fill="rgb(89.408875%, 30.198669%, 14.898682%)" d="M 239.046875 1237.238281 L 161.683594 369.457031 L 1011.734375 369.457031 L 934.308594 1237.117188 L 586.164062 1333.597656 Z M 239.046875 1237.238281 " fill-opacity="1" fill-rule="nonzero"/></g><path fill="rgb(94.509888%, 39.608765%, 16.079712%)" d="M 868 1181.859375 L 934.1875 440.414062 L 586.707031 440.414062 L 586.707031 1259.867188 Z M 868 1181.859375 " fill-opacity="1" fill-rule="nonzero"/><path fill="rgb(92.158508%, 92.158508%, 92.158508%)" d="M 586.347656 546.832031 L 319.847656 546.832031 L 348.558594 868.683594 L 586.707031 868.683594 L 586.707031 762.265625 L 445.894531 762.265625 L 436.164062 653.285156 L 586.707031 653.285156 L 586.707031 546.832031 Z M 586.707031 1038.320312 L 586.257812 1038.4375 L 467.738281 1006.441406 L 460.207031 921.5625 L 353.316406 921.5625 L 368.230469 1088.667969 L 586.226562 1148.925781 L 586.707031 1148.777344 Z M 586.707031 1038.320312 " fill-opacity="1" fill-rule="nonzero"/><path fill="rgb(100%, 100%, 100%)" d="M 586.347656 868.683594 L 717.398438 868.683594 L 705.347656 1006.683594 L 586.648438 1038.710938 L 586.648438 1149.4375 L 804.824219 1088.96875 L 834.046875 762.203125 L 586.707031 762.203125 Z M 850.375 575.398438 L 852.90625 546.832031 L 586.285156 546.832031 L 586.285156 653.253906 L 843.328125 653.253906 L 845.4375 629.332031 Z M 850.375 575.398438 " fill-opacity="1" fill-rule="nonzero"/></svg>