<?xml version="1.0" encoding="UTF-8"?><svg xmlns="http://www.w3.org/2000/svg" xmlns:xlink="http://www.w3.org/1999/xlink" width="1190.25" zoomAndPan="magnify" viewBox="0 0 1190.25 1683.749945" height="1683.749945" preserveAspectRatio="xMidYMid meet" version="1.0"><defs><clipPath id="clip-0"><path d="M 169.621094 416.589844 L 1020.691406 416.589844 L 1020.691406 1267.660156 L 169.621094 1267.660156 Z M 169.621094 416.589844 " clip-rule="nonzero"/></clipPath></defs><g clip-path="url(#clip-0)"><path fill="rgb(100%, 83.918762%, 0%)" d="M 169.621094 416.589844 L 240.546875 1196.734375 L 595.15625 1267.660156 L 949.765625 1196.734375 L 1020.691406 416.589844 Z M 559.699219 1115.871094 L 372.207031 1078.433594 L 360.398438 948.507812 L 431.632812 948.507812 L 438.050781 1019.285156 L 488.773438 1029.402344 L 488.773438 558.429688 L 559.699219 558.429688 Z M 858.902344 629.355469 L 701.539062 629.355469 L 701.539062 806.667969 L 842.796875 806.667969 L 818.105469 1078.445312 L 630.613281 1115.882812 L 630.613281 1043.574219 L 752.242188 1019.296875 L 765.125 877.59375 L 630.613281 877.59375 L 630.613281 558.441406 L 865.339844 558.441406 Z M 858.902344 629.355469 " fill-opacity="1" fill-rule="nonzero"/></g></svg>