<?xml version="1.0" encoding="UTF-8"?><svg xmlns="http://www.w3.org/2000/svg" xmlns:xlink="http://www.w3.org/1999/xlink" width="595.5" zoomAndPan="magnify" viewBox="0 0 595.5 842.249979" height="842.249979" preserveAspectRatio="xMidYMid meet" version="1.0"><defs><clipPath id="clip-0"><path d="M 111.089844 255 L 483.824219 255 L 483.824219 587 L 111.089844 587 Z M 111.089844 255 " clip-rule="nonzero"/></clipPath></defs><g clip-path="url(#clip-0)"><path fill="rgb(0%, 84.709167%, 100%)" d="M 417.304688 362.539062 C 413.453125 361.210938 409.457031 359.953125 405.332031 358.761719 C 406.011719 356 406.636719 353.273438 407.191406 350.59375 C 416.242188 306.59375 410.328125 271.140625 390.089844 259.46875 C 370.675781 248.277344 338.941406 259.949219 306.886719 287.84375 C 303.808594 290.527344 300.710938 293.367188 297.632812 296.34375 C 295.566406 294.375 293.519531 292.472656 291.46875 290.652344 C 257.875 260.824219 224.207031 248.25 203.988281 259.957031 C 184.601562 271.179688 178.859375 304.507812 187.019531 346.210938 C 187.808594 350.238281 188.726562 354.351562 189.769531 358.535156 C 185.003906 359.886719 180.402344 361.328125 176.003906 362.863281 C 136.621094 376.59375 111.46875 398.117188 111.46875 420.441406 C 111.46875 443.488281 138.46875 466.621094 179.488281 480.644531 C 182.722656 481.75 186.082031 482.796875 189.542969 483.785156 C 188.421875 488.304688 187.445312 492.734375 186.625 497.066406 C 178.84375 538.046875 184.917969 570.582031 204.253906 581.726562 C 224.226562 593.25 257.746094 581.40625 290.382812 552.882812 C 292.96875 550.628906 295.554688 548.230469 298.140625 545.734375 C 301.511719 548.957031 304.867188 552.023438 308.195312 554.902344 C 339.8125 582.105469 371.039062 593.089844 390.347656 581.917969 C 410.300781 570.363281 416.792969 535.402344 408.367188 492.882812 C 407.726562 489.625 406.972656 486.3125 406.144531 482.941406 C 408.496094 482.242188 410.808594 481.515625 413.058594 480.777344 C 455.707031 466.636719 483.445312 443.808594 483.445312 420.441406 C 483.445312 398.035156 457.480469 376.367188 417.304688 362.539062 Z M 408.0625 465.691406 C 406.027344 466.359375 403.933594 467.015625 401.8125 467.640625 C 397.105469 452.746094 390.757812 436.890625 382.96875 420.511719 C 390.394531 404.527344 396.496094 388.882812 401.074219 374.074219 C 404.878906 375.175781 408.570312 376.339844 412.128906 377.5625 C 446.554688 389.414062 467.550781 406.941406 467.550781 420.441406 C 467.550781 434.8125 444.882812 453.484375 408.0625 465.691406 Z M 392.777344 495.960938 C 396.511719 514.765625 397.035156 531.769531 394.5625 545.0625 C 392.355469 557.007812 387.894531 564.972656 382.386719 568.15625 C 370.660156 574.941406 345.597656 566.121094 318.570312 542.855469 C 315.460938 540.183594 312.335938 537.332031 309.210938 534.324219 C 319.6875 522.859375 330.164062 509.535156 340.394531 494.726562 C 358.367188 493.140625 375.355469 490.527344 390.769531 486.964844 C 391.527344 490.03125 392.195312 493.027344 392.777344 495.960938 Z M 238.289062 566.976562 C 226.835938 571.03125 217.714844 571.148438 212.199219 567.964844 C 200.46875 561.195312 195.589844 535.066406 202.242188 500.03125 C 203.003906 496.019531 203.914062 491.894531 204.957031 487.679688 C 220.195312 491.050781 237.058594 493.476562 255.085938 494.929688 C 265.378906 509.417969 276.160156 522.730469 287.015625 534.382812 C 284.648438 536.679688 282.277344 538.859375 279.925781 540.910156 C 265.496094 553.535156 251.035156 562.488281 238.289062 566.976562 Z M 184.632812 465.605469 C 166.496094 459.398438 151.515625 451.347656 141.25 442.542969 C 132.023438 434.652344 127.363281 426.804688 127.363281 420.441406 C 127.363281 406.898438 147.558594 389.613281 181.238281 377.871094 C 185.324219 376.445312 189.601562 375.101562 194.042969 373.839844 C 198.699219 388.980469 204.804688 404.820312 212.171875 420.816406 C 204.707031 437.066406 198.515625 453.152344 193.8125 468.480469 C 190.648438 467.566406 187.582031 466.609375 184.632812 465.605469 Z M 202.617188 343.15625 C 195.628906 307.425781 200.269531 280.476562 211.953125 273.710938 C 224.398438 266.507812 251.917969 276.777344 280.914062 302.535156 C 282.773438 304.179688 284.632812 305.902344 286.507812 307.6875 C 275.695312 319.292969 265.015625 332.503906 254.8125 346.90625 C 237.320312 348.527344 220.574219 351.128906 205.175781 354.621094 C 204.207031 350.726562 203.351562 346.898438 202.621094 343.15625 Z M 363.0625 382.78125 C 359.386719 376.425781 355.609375 370.214844 351.757812 364.175781 C 363.628906 365.679688 374.992188 367.671875 385.671875 370.105469 C 382.476562 380.382812 378.480469 391.125 373.773438 402.144531 C 370.402344 395.734375 366.828125 389.273438 363.0625 382.78125 Z M 297.632812 319.042969 C 304.972656 326.984375 312.308594 335.851562 319.53125 345.472656 C 312.25 345.128906 304.882812 344.949219 297.457031 344.949219 C 290.105469 344.949219 282.796875 345.125 275.5625 345.460938 C 282.78125 335.929688 290.195312 327.078125 297.632812 319.042969 Z M 231.785156 382.890625 C 228.109375 389.265625 224.605469 395.691406 221.285156 402.128906 C 216.65625 391.152344 212.699219 380.359375 209.464844 369.9375 C 220.078125 367.5625 231.394531 365.621094 243.1875 364.148438 C 239.28125 370.242188 235.472656 376.496094 231.785156 382.890625 Z M 243.527344 477.855469 C 231.34375 476.503906 219.855469 474.660156 209.246094 472.347656 C 212.53125 461.738281 216.574219 450.722656 221.300781 439.507812 C 224.632812 445.945312 228.148438 452.367188 231.847656 458.761719 C 235.617188 465.269531 239.519531 471.636719 243.527344 477.855469 Z M 298.070312 522.945312 C 290.542969 514.824219 283.03125 505.828125 275.691406 496.164062 C 282.8125 496.441406 290.078125 496.585938 297.457031 496.585938 C 305.042969 496.585938 312.542969 496.414062 319.90625 496.09375 C 312.671875 505.929688 305.347656 514.941406 298.070312 522.945312 Z M 373.917969 438.9375 C 378.886719 450.273438 383.085938 461.230469 386.414062 471.664062 C 375.632812 474.121094 363.976562 476.097656 351.714844 477.578125 C 355.578125 471.460938 359.386719 465.140625 363.136719 458.644531 C 366.929688 452.074219 370.515625 445.492188 373.917969 438.9375 Z M 349.359375 450.710938 C 343.546875 460.796875 337.578125 470.414062 331.519531 479.496094 C 320.488281 480.28125 309.082031 480.6875 297.457031 480.6875 C 285.878906 480.6875 274.617188 480.339844 263.777344 479.628906 C 257.472656 470.429688 251.375 460.78125 245.597656 450.796875 L 245.601562 450.796875 C 239.835938 440.84375 234.535156 430.800781 229.726562 420.816406 C 234.53125 410.820312 239.824219 400.765625 245.550781 390.828125 L 245.550781 390.832031 C 251.292969 380.871094 257.339844 371.261719 263.589844 362.113281 C 274.644531 361.277344 285.996094 360.839844 297.457031 360.839844 C 308.980469 360.839844 320.328125 361.28125 331.386719 362.125 C 337.546875 371.207031 343.546875 380.78125 349.316406 390.746094 C 355.144531 400.824219 360.503906 410.804688 365.34375 420.601562 C 360.519531 430.554688 355.171875 440.640625 349.359375 450.710938 Z M 382.140625 273.234375 C 394.609375 280.417969 399.445312 309.390625 391.613281 347.382812 C 391.121094 349.808594 390.554688 352.277344 389.945312 354.777344 C 374.511719 351.21875 357.757812 348.566406 340.222656 346.921875 C 329.992188 332.367188 319.398438 319.132812 308.761719 307.675781 C 311.625 304.925781 314.488281 302.300781 317.320312 299.828125 C 344.785156 275.925781 370.460938 266.492188 382.140625 273.234375 Z M 297.457031 387.214844 C 315.796875 387.214844 330.675781 402.082031 330.675781 420.4375 C 330.675781 438.773438 315.796875 453.65625 297.457031 453.65625 C 279.121094 453.65625 264.242188 438.773438 264.242188 420.4375 C 264.242188 402.082031 279.121094 387.214844 297.457031 387.214844 Z M 297.457031 387.214844 " fill-opacity="1" fill-rule="nonzero"/></g></svg>