<?xml version="1.0" encoding="UTF-8"?><svg xmlns="http://www.w3.org/2000/svg" xmlns:xlink="http://www.w3.org/1999/xlink" width="1190.25" zoomAndPan="magnify" viewBox="0 0 1190.25 1683.749945" height="1683.749945" preserveAspectRatio="xMidYMid meet" version="1.0"><defs><clipPath id="clip-0"><path d="M 178.546875 426 L 1011.621094 426 L 1011.621094 1258.585938 L 178.546875 1258.585938 Z M 178.546875 426 " clip-rule="nonzero"/></clipPath></defs><g clip-path="url(#clip-0)"><path fill="rgb(94.119263%, 38.42926%, 57.249451%)" d="M 594.914062 426.179688 C 825.066406 426.179688 1011.621094 612.734375 1011.621094 842.882812 C 1011.621094 1073.011719 825.066406 1259.589844 594.914062 1259.589844 C 364.785156 1259.589844 178.210938 1073.035156 178.210938 842.882812 C 178.230469 612.734375 364.785156 426.179688 594.914062 426.179688 Z M 594.914062 426.179688 " fill-opacity="1" fill-rule="evenodd"/></g><path fill="rgb(100%, 100%, 100%)" d="M 856.300781 604.527344 C 837.425781 530.511719 714.71875 506.1875 598.589844 547.445312 C 529.480469 572 454.648438 610.542969 400.84375 660.859375 C 336.871094 720.699219 326.683594 772.773438 330.878906 794.527344 C 345.703125 871.300781 450.914062 921.492188 494.152344 958.742188 L 494.152344 958.972656 C 481.394531 965.257812 388.066406 1012.484375 366.226562 1060.777344 C 343.175781 1111.722656 369.902344 1148.28125 387.585938 1153.210938 C 442.394531 1168.449219 498.621094 1141.035156 528.855469 1095.957031 C 558.023438 1052.445312 555.601562 996.28125 542.925781 968.324219 C 560.402344 963.710938 580.800781 961.644531 606.691406 964.671875 C 679.789062 973.210938 694.132812 1018.851562 691.375 1037.957031 C 688.640625 1057.0625 673.296875 1067.5625 668.179688 1070.738281 C 663.042969 1073.910156 661.5 1075.015625 661.917969 1077.355469 C 662.542969 1080.78125 664.902344 1080.65625 669.285156 1079.921875 C 675.300781 1078.902344 707.664062 1064.390625 709.0625 1029.125 C 710.816406 984.359375 667.929688 934.292969 591.972656 935.585938 C 560.695312 936.128906 541.027344 939.09375 526.808594 944.398438 C 525.765625 943.207031 524.679688 942.019531 523.59375 940.828125 C 476.636719 890.71875 389.820312 855.285156 393.496094 787.929688 C 394.832031 763.4375 403.351562 698.964844 560.296875 620.75 C 688.871094 556.671875 791.804688 574.316406 809.59375 613.382812 C 835.003906 669.210938 754.578125 772.960938 621.054688 787.929688 C 570.171875 793.628906 543.386719 773.921875 536.726562 766.570312 C 529.710938 758.84375 528.667969 758.492188 526.054688 759.953125 C 521.796875 762.3125 524.492188 769.140625 526.054688 773.210938 C 530.042969 783.585938 546.414062 801.980469 574.285156 811.148438 C 598.820312 819.207031 658.554688 823.613281 730.796875 795.675781 C 811.679688 764.359375 874.863281 677.292969 856.300781 604.527344 Z M 512.109375 981.6875 C 518.164062 1004.113281 517.496094 1025.03125 511.253906 1043.96875 C 510.5625 1046.078125 509.792969 1048.144531 508.957031 1050.214844 C 508.121094 1052.257812 507.222656 1054.304688 506.261719 1056.308594 C 501.441406 1066.332031 494.945312 1075.707031 487.011719 1084.371094 C 462.792969 1110.78125 428.96875 1120.761719 414.476562 1112.347656 C 398.820312 1103.265625 406.667969 1066.039062 434.730469 1036.347656 C 464.921875 1004.425781 508.371094 983.902344 508.371094 983.902344 L 508.308594 983.777344 C 509.5625 983.085938 510.835938 982.398438 512.109375 981.6875 Z M 512.109375 981.6875 " fill-opacity="1" fill-rule="nonzero"/></svg>